<?xml version="1.0" encoding="UTF-8"?>
<svg version="1.1" xmlns="http://www.w3.org/2000/svg" width="512" height="512">
<path d="M0 0 C2.39570618 -0.37473011 2.39570618 -0.37473011 5.46606445 -0.3742218 C6.62707672 -0.38123611 7.78808899 -0.38825043 8.98428345 -0.39547729 C10.26435272 -0.38783356 11.544422 -0.38018982 12.86328125 -0.37231445 C14.21992268 -0.37474143 15.57656233 -0.37845983 16.93319702 -0.38337708 C20.62327287 -0.39280277 24.31308426 -0.38334677 28.0031395 -0.37004495 C31.85927128 -0.35875104 35.71538964 -0.36283635 39.5715332 -0.36479187 C46.04805842 -0.3656755 52.52447911 -0.35458008 59.00097656 -0.33618164 C66.49570485 -0.31501292 73.99027995 -0.31150371 81.48503208 -0.3177436 C88.68571057 -0.32343242 95.88633493 -0.31779731 103.08700562 -0.30657005 C106.15555824 -0.30191765 109.22407785 -0.30105298 112.29263306 -0.3031559 C115.90414353 -0.30503545 119.51549743 -0.29696079 123.1269722 -0.2810955 C125.08987695 -0.27480824 127.05280541 -0.27836655 129.01571655 -0.28216553 C130.75723495 -0.27153831 130.75723495 -0.27153831 132.53393555 -0.26069641 C133.54715378 -0.25864354 134.56037201 -0.25659067 135.60429382 -0.25447559 C138 -0 138 -0 140 2 C140.22705078 3.97119141 140.22705078 3.97119141 140.1953125 6.3515625 C140.18886719 7.20234375 140.18242187 8.053125 140.17578125 8.9296875 C140.15902344 9.81914062 140.14226562 10.70859375 140.125 11.625 C140.11597656 12.5221875 140.10695313 13.419375 140.09765625 14.34375 C140.0740497 16.56276586 140.0411231 18.78125077 140 21 C140.59014893 20.98952637 141.18029785 20.97905273 141.78833008 20.96826172 C144.46301004 20.92667956 147.13762197 20.9006671 149.8125 20.875 C150.74126953 20.85824219 151.67003906 20.84148438 152.62695312 20.82421875 C153.51962891 20.81777344 154.41230469 20.81132812 155.33203125 20.8046875 C156.15421143 20.79421387 156.9763916 20.78374023 157.82348633 20.77294922 C160 21 160 21 163 23 C163.38476086 25.4012928 163.38476086 25.4012928 163.39872742 28.47952271 C163.41753464 30.22537659 163.41753464 30.22537659 163.4367218 32.00650024 C163.43456917 33.93131729 163.43456917 33.93131729 163.43237305 35.89501953 C163.44138554 37.25491226 163.45171149 38.61479683 163.46325684 39.97467041 C163.49091362 43.67280238 163.50012301 47.3707806 163.50611091 51.06900263 C163.51547214 54.93147064 163.54167358 58.79382277 163.56611633 62.65621948 C163.60984725 69.97306883 163.63835361 77.28989577 163.66143972 84.6068362 C163.68845617 92.93569015 163.73236977 101.2644279 163.77772844 109.59319901 C163.87066906 126.7287396 163.94230654 143.86430526 164 161 C164.88840576 160.24291748 165.77681152 159.48583496 166.69213867 158.70581055 C167.87152069 157.70354109 169.05096747 156.70134785 170.23046875 155.69921875 C170.81437378 155.20127808 171.39827881 154.7033374 171.99987793 154.19030762 C175.86825128 150.90702064 179.78995694 147.83933137 184 145 C180.04 144.67 176.08 144.34 172 144 C172 139.71 172 135.42 172 131 C184.87 131 197.74 131 211 131 C210.36266522 136.73601306 209.76774761 141.54425933 208.37109375 147.00390625 C208.05849609 148.23818359 207.74589844 149.47246094 207.42382812 150.74414062 C206.9355957 152.63422852 206.9355957 152.63422852 206.4375 154.5625 C206.10426583 155.87030221 205.77157937 157.17824411 205.43945312 158.48632812 C204.6316604 161.65896331 203.81838245 164.8300831 203 168 C198.15618434 169.36288171 194.85999784 168.21499946 190 167 C190.66 163.37 191.32 159.74 192 156 C186.05972989 160.37114216 180.33892563 164.95754298 174.64697266 169.64599609 C166.51942804 176.32778715 158.35969599 182.96724248 150.0625 189.4375 C143.37609072 194.65578766 136.83768373 200.04557611 130.30078125 205.44921875 C121.22488568 212.95061967 112.09994911 220.38676658 102.8125 227.625 C98.28664261 231.15232856 93.85997434 234.76967493 89.5 238.5 C83.86706072 243.31937859 78.09698343 247.93607467 72.234375 252.47265625 C70.22630525 254.02802958 68.27403953 255.61027379 66.328125 257.24609375 C65.17570313 258.20708984 65.17570313 258.20708984 64 259.1875 C63.360625 259.73792969 62.72125 260.28835938 62.0625 260.85546875 C59.18364348 262.45301603 57.25961939 262.32442188 54 262 C51.68579102 260.3828125 51.68579102 260.3828125 49.50390625 258.125 C48.69759766 257.30386719 47.89128906 256.48273438 47.06054688 255.63671875 C46.23619141 254.76660156 45.41183594 253.89648438 44.5625 253 C43.33176758 251.74123047 43.33176758 251.74123047 42.07617188 250.45703125 C37.761054 246.0144917 33.61330373 241.45991104 29.56616211 236.7734375 C27.31788988 234.22761529 24.93036749 231.87318237 22.5 229.5 C19.28230866 226.33557078 16.17246329 223.12995113 13.25 219.6875 C10.13490347 216.0293358 6.72003155 213.03676045 3 210 C2.5153125 210.49628906 2.030625 210.99257812 1.53125 211.50390625 C-1.88113682 214.96222905 -5.31377611 218.33306558 -9 221.5 C-11.78896393 223.89676588 -14.41990785 226.37959391 -17 229 C-20.20029522 232.25029983 -23.54224576 235.24724245 -27 238.21875 C-29.08337078 240.0742521 -31.04281207 242.01223101 -33 244 C-36.20029522 247.25029983 -39.54224576 250.24724245 -43 253.21875 C-45.08337078 255.0742521 -47.04281207 257.01223101 -49 259 C-52.20029522 262.25029983 -55.54224576 265.24724245 -59 268.21875 C-61.08337078 270.0742521 -63.04281207 272.01223101 -65 274 C-68.20029522 277.25029983 -71.54224576 280.24724245 -75 283.21875 C-77.08337078 285.0742521 -79.04281207 287.01223101 -81 289 C-84.20029522 292.25029983 -87.54224576 295.24724245 -91 298.21875 C-93.08337078 300.0742521 -95.04281207 302.01223101 -97 304 C-100.19772744 307.24769193 -103.53624203 310.24289021 -106.9921875 313.2109375 C-109.1215104 315.10827191 -111.12379338 317.09335678 -113.125 319.125 C-121.84080459 327.8748507 -121.84080459 327.8748507 -125.89453125 328.3125 C-129.47080326 327.95262357 -130.7596352 327.20055713 -133.5625 325 C-134.50867188 324.27296875 -135.45484375 323.5459375 -136.4296875 322.796875 C-136.97850586 322.36568359 -137.52732422 321.93449219 -138.09277344 321.49023438 C-141.19124308 319.06920792 -144.32962781 316.70081127 -147.4609375 314.32250977 C-150.20903563 312.23363038 -152.95250627 310.13879023 -155.6953125 308.04296875 C-160.94382188 304.03722939 -166.20738109 300.05191747 -171.50976562 296.11767578 C-174.54625784 293.86228743 -177.54279021 291.57937988 -180.4765625 289.19140625 C-181.29338501 288.53966431 -181.29338501 288.53966431 -182.12670898 287.87475586 C-183.57769589 286.71292229 -185.01410329 285.53294468 -186.44921875 284.3515625 C-187.29097656 283.90554688 -188.13273437 283.45953125 -189 283 C-192.37878876 284.07761574 -195.34418505 285.67474859 -198.38671875 287.4765625 C-199.23049072 287.97494629 -200.0742627 288.47333008 -200.94360352 288.98681641 C-201.84908936 289.52741699 -202.7545752 290.06801758 -203.6875 290.625 C-204.63488037 291.18751465 -205.58226074 291.7500293 -206.55834961 292.32958984 C-217.57749885 298.89802816 -228.48992658 305.64104904 -239.39477539 312.39697266 C-240.25449951 312.92597168 -241.11422363 313.4549707 -242 314 C-242.87454834 314.58442871 -243.74909668 315.16885742 -244.65014648 315.77099609 C-245.81332397 316.37935303 -245.81332397 316.37935303 -247 317 C-250 316 -250 316 -251.38671875 313.71484375 C-251.81597656 312.79832031 -252.24523437 311.88179688 -252.6875 310.9375 C-253.12449219 310.01839844 -253.56148437 309.09929687 -254.01171875 308.15234375 C-254.50091797 307.08693359 -254.50091797 307.08693359 -255 306 C-254.03586182 305.42967041 -253.07172363 304.85934082 -252.07836914 304.27172852 C-248.51236774 302.16175069 -244.94753446 300.04980634 -241.38305664 297.93725586 C-239.83812914 297.02200212 -238.29288243 296.10728699 -236.74731445 295.19311523 C-234.52992597 293.88145068 -232.31368065 292.56787373 -230.09765625 291.25390625 C-229.4028566 290.84346573 -228.70805695 290.43302521 -227.99220276 290.01014709 C-224.8163961 288.24857253 -224.8163961 288.24857253 -222 286 C-221.8943599 283.56587699 -221.85395267 281.15970063 -221.85523987 278.72476196 C-221.85171302 277.95423284 -221.84818618 277.18370372 -221.84455246 276.38982522 C-221.83381238 273.78803512 -221.83017533 271.18628154 -221.82641602 268.58447266 C-221.82011485 266.72714583 -221.81334954 264.86982052 -221.80615234 263.01249695 C-221.79145247 259.00297994 -221.77973996 254.99346888 -221.77020454 250.98393631 C-221.75479492 244.64847295 -221.73084644 238.31306019 -221.70530701 231.97763062 C-221.63398897 213.95875235 -221.57428395 195.939845 -221.52319336 177.92089844 C-221.49492247 167.97683924 -221.45955849 158.03283026 -221.41653961 148.08882368 C-221.3897083 141.78654403 -221.3718393 135.48432125 -221.36050236 129.18199563 C-221.35139735 125.26492803 -221.33404547 121.34792966 -221.31432343 117.43090248 C-221.30682931 115.60998303 -221.30276575 113.78904586 -221.30232811 111.96811104 C-221.30125059 109.4883374 -221.28804819 107.00891862 -221.27174377 104.52920532 C-221.27566906 103.44025245 -221.27566906 103.44025245 -221.27967364 102.32930052 C-221.24182882 98.66175062 -221.09311842 97.13967762 -219 94 C-216.84521484 93.65942383 -216.84521484 93.65942383 -214.2109375 93.70703125 C-213.26992187 93.71669922 -212.32890625 93.72636719 -211.359375 93.73632812 C-210.37453125 93.76146484 -209.3896875 93.78660156 -208.375 93.8125 C-206.88613281 93.83280273 -206.88613281 93.83280273 -205.3671875 93.85351562 C-202.91091928 93.88894257 -200.45572715 93.93833804 -198 94 C-198.04640625 92.74703125 -198.0928125 91.4940625 -198.140625 90.203125 C-198.17814813 88.55210719 -198.21454771 86.90106358 -198.25 85.25 C-198.30027344 84.0125 -198.30027344 84.0125 -198.3515625 82.75 C-198.36445313 81.95078125 -198.37734375 81.1515625 -198.390625 80.328125 C-198.41157227 79.5949707 -198.43251953 78.86181641 -198.45410156 78.10644531 C-197.79170491 75.03377957 -196.4781107 73.87792692 -194 72 C-191.43457031 71.54589844 -191.43457031 71.54589844 -188.578125 71.609375 C-187.04091797 71.62871094 -187.04091797 71.62871094 -185.47265625 71.6484375 C-184.40917969 71.68195313 -183.34570312 71.71546875 -182.25 71.75 C-181.17105469 71.76804687 -180.09210938 71.78609375 -178.98046875 71.8046875 C-176.31941212 71.85178585 -173.66015746 71.917544 -171 72 C-171.03480469 70.81921875 -171.06960937 69.6384375 -171.10546875 68.421875 C-171.13361232 66.86459758 -171.16091187 65.30730475 -171.1875 63.75 C-171.21263672 62.97269531 -171.23777344 62.19539063 -171.26367188 61.39453125 C-171.27333984 60.64042969 -171.28300781 59.88632812 -171.29296875 59.109375 C-171.3086792 58.41811523 -171.32438965 57.72685547 -171.34057617 57.01464844 C-170.8583055 54.16181862 -170.09161017 53.02776254 -168 51 C-165.26215791 50.59200182 -162.92056461 50.44274394 -160.1796875 50.46655273 C-159.38427551 50.45793716 -158.58886353 50.44932159 -157.76934814 50.44044495 C-155.13756868 50.41772386 -152.50684867 50.42453432 -149.875 50.43359375 C-148.04801109 50.42836107 -146.22102489 50.42208591 -144.39404297 50.41481018 C-140.56399834 50.40439482 -136.73432498 50.40898395 -132.90429688 50.42358398 C-127.99088982 50.44077867 -123.07865138 50.41727451 -118.16537476 50.38209438 C-114.3924176 50.36015729 -110.6197417 50.36155276 -106.84674072 50.3698597 C-105.03500079 50.37068115 -103.2232406 50.36378079 -101.41156006 50.34908867 C-98.88040853 50.33170886 -96.35137779 50.34612773 -93.8203125 50.36889648 C-92.6934201 50.35135818 -92.6934201 50.35135818 -91.54376221 50.33346558 C-89.45361328 50.37181091 -89.45361328 50.37181091 -86 51 C-82.48149842 55.0893971 -82.63237509 59.1443006 -82.8125 64.3125 C-82.82603516 65.05306641 -82.83957031 65.79363281 -82.85351562 66.55664062 C-82.88864021 68.37141075 -82.94244028 70.18580288 -83 72 C-82.32420898 71.98428955 -81.64841797 71.9685791 -80.95214844 71.95239258 C-77.88485103 71.88996133 -74.81768741 71.85098353 -71.75 71.8125 C-70.68652344 71.78736328 -69.62304688 71.76222656 -68.52734375 71.73632812 C-67.50253906 71.72666016 -66.47773438 71.71699219 -65.421875 71.70703125 C-64.47924805 71.6913208 -63.53662109 71.67561035 -62.56542969 71.65942383 C-59.4849318 72.06837839 -58.14529013 72.7602475 -56 75 C-55.54589844 77.0847168 -55.54589844 77.0847168 -55.609375 79.44921875 C-55.62226563 80.29677734 -55.63515625 81.14433594 -55.6484375 82.01757812 C-55.69871094 83.33918945 -55.69871094 83.33918945 -55.75 84.6875 C-55.76804688 85.58017578 -55.78609375 86.47285156 -55.8046875 87.39257812 C-55.85182241 89.59613504 -55.91759343 91.79752601 -56 94 C-55.37432129 93.98952637 -54.74864258 93.97905273 -54.10400391 93.96826172 C-51.2777099 93.92676809 -48.45147989 93.90069527 -45.625 93.875 C-44.64015625 93.85824219 -43.6553125 93.84148437 -42.640625 93.82421875 C-41.69960937 93.81777344 -40.75859375 93.81132813 -39.7890625 93.8046875 C-38.48509521 93.78897705 -38.48509521 93.78897705 -37.15478516 93.77294922 C-35 94 -35 94 -33 96 C-32.75949097 98.63223267 -32.75949097 98.63223267 -32.77294922 102.01025391 C-32.77317581 103.90198837 -32.77317581 103.90198837 -32.77340698 105.8319397 C-32.78362102 107.21348222 -32.79405303 108.59502315 -32.8046875 109.9765625 C-32.80841712 111.38617757 -32.81126433 112.79579523 -32.81326294 114.20541382 C-32.82090345 117.91759382 -32.84055539 121.62961761 -32.8626709 125.34173584 C-32.88312041 129.12884406 -32.89226273 132.9159775 -32.90234375 136.703125 C-32.923801 144.13548793 -32.95794184 151.56772208 -33 159 C-30.69 159.33 -28.38 159.66 -26 160 C-25.99641747 158.95278668 -25.99641747 158.95278668 -25.99276257 157.88441753 C-25.93366614 140.90912259 -25.85815067 123.93398063 -25.76428509 106.95884228 C-25.71928997 98.74983693 -25.67988398 90.54087533 -25.65356445 82.33178711 C-25.63061435 75.17802474 -25.59725006 68.02440037 -25.55129844 60.87074739 C-25.52732565 57.08175586 -25.50862357 53.29290136 -25.50238609 49.50383568 C-25.49635341 45.93903676 -25.47642028 42.37458861 -25.44572449 38.80991936 C-25.43270736 36.87465362 -25.43451916 34.93930606 -25.4367218 33.0039978 C-25.42418365 31.85554886 -25.41164551 30.70709991 -25.39872742 29.52384949 C-25.39411845 28.5237041 -25.38950949 27.52355871 -25.38476086 26.49310589 C-25 24 -25 24 -23.61111164 22.17604542 C-21.43084776 20.58454221 -20.01247818 20.65581252 -17.33203125 20.70703125 C-16.43935547 20.71669922 -15.54667969 20.72636719 -14.62695312 20.73632812 C-13.69818359 20.76146484 -12.76941406 20.78660156 -11.8125 20.8125 C-10.87212891 20.82603516 -9.93175781 20.83957031 -8.96289062 20.85351562 C-6.64134962 20.88886904 -4.32096347 20.93821326 -2 21 C-2.02320313 19.73542969 -2.04640625 18.47085937 -2.0703125 17.16796875 C-2.08907126 15.5078184 -2.10727135 13.84766167 -2.125 12.1875 C-2.14175781 11.35412109 -2.15851563 10.52074219 -2.17578125 9.66210938 C-2.18222656 8.85966797 -2.18867188 8.05722656 -2.1953125 7.23046875 C-2.20578613 6.49207764 -2.21625977 5.75368652 -2.22705078 4.99291992 C-2 3 -2 3 0 0 Z M10 12 C10 14.97 10 17.94 10 21 C48.94 21 87.88 21 128 21 C128 18.03 128 15.06 128 12 C89.06 12 50.12 12 10 12 Z M-13 33 C-13 76.23 -13 119.46 -13 164 C-7.59800909 166.02574659 -2.3076911 167.88137641 3.21337891 169.48022461 C3.99185181 169.70832321 4.77032471 169.93642181 5.5723877 170.1714325 C8.12294056 170.91797409 10.67472613 171.66020249 13.2265625 172.40234375 C15.02012418 172.92630578 16.81361044 173.45052599 18.60702515 173.97499084 C23.31901364 175.35215537 28.0320777 176.72560328 32.74536133 178.09832764 C36.56083583 179.2102174 40.37556035 180.32466647 44.19024086 181.4392767 C51.32491965 183.52392702 58.45970446 185.60823588 65.59619713 187.68666935 C67.18180349 188.14888277 68.76703305 188.61239114 70.35184669 189.07731533 C73.96582704 190.13436438 77.58245286 191.16467384 81.22283936 192.12722778 C82.49041077 192.46753021 83.75798218 192.80783264 85.06396484 193.15844727 C86.16847992 193.44494644 87.272995 193.73144562 88.41098022 194.02662659 C91 195 91 195 93 198 C93.31884766 200.17651367 93.31884766 200.17651367 93.4140625 202.66796875 C93.45273437 203.56064453 93.49140625 204.45332031 93.53125 205.37304688 C93.5621875 206.30181641 93.593125 207.23058594 93.625 208.1875 C93.66367187 209.12787109 93.70234375 210.06824219 93.7421875 211.03710938 C93.83643187 213.3578771 93.92204025 215.67863748 94 218 C99.60551938 213.87624824 105.02558851 209.57459047 110.375 205.125 C111.88108353 203.87839032 113.38759101 202.63229266 114.89453125 201.38671875 C115.96501709 200.50185791 115.96501709 200.50185791 117.05712891 199.59912109 C120.12202785 197.07649128 123.22514471 194.60334879 126.33203125 192.1328125 C129.98653363 189.21135086 133.61853701 186.26252359 137.25 183.3125 C137.92426025 182.7652124 138.59852051 182.2179248 139.29321289 181.65405273 C139.94410889 181.12497314 140.59500488 180.59589355 141.265625 180.05078125 C141.84086914 179.58325439 142.41611328 179.11572754 143.00878906 178.6340332 C143.66588867 178.09480225 144.32298828 177.55557129 145 177 C146.52552994 176.12426331 146.52552994 176.12426331 148.08187866 175.23083496 C150.34623789 173.31598937 150.94575301 172.26597924 151.54566956 169.32451916 C151.74134099 165.76089349 151.74114471 162.24128417 151.68115234 158.67260742 C151.67931339 157.28028877 151.6801169 155.88796452 151.68334389 154.49564838 C151.68469659 150.77231917 151.64996582 147.05015069 151.60768127 143.32709503 C151.57346887 139.83151152 151.57190047 136.33620795 151.56762695 132.8404541 C151.53616357 122.62264943 151.45239624 112.40505999 151.375 102.1875 C151.25125 79.355625 151.1275 56.52375 151 33 C96.88 33 42.76 33 -13 33 Z M-158 63 C-158 65.97 -158 68.94 -158 72 C-137.21 72 -116.42 72 -95 72 C-95 69.03 -95 66.06 -95 63 C-115.79 63 -136.58 63 -158 63 Z M-186 84 C-186 87.3 -186 90.6 -186 94 C-147.06 94 -108.12 94 -68 94 C-68 90.7 -68 87.4 -68 84 C-106.94 84 -145.88 84 -186 84 Z M-209 106 C-209 162.76 -209 219.52 -209 278 C-203.88641239 275.95456496 -199.72590121 273.35538473 -195.1328125 270.36328125 C-191.05712535 268.58969669 -189.25662947 268.71343032 -185 270 C-181.97324226 271.85353517 -179.2896054 274.04760072 -176.5625 276.3125 C-174.95674669 277.60413059 -173.34995715 278.89447388 -171.7421875 280.18359375 C-170.54287598 281.15401611 -170.54287598 281.15401611 -169.31933594 282.14404297 C-165.99991233 284.80028068 -162.60232669 287.3433408 -159.1875 289.875 C-154.59070647 293.29599265 -150.01792224 296.7450799 -145.47265625 300.234375 C-144.52430908 300.96156738 -143.57596191 301.68875977 -142.59887695 302.43798828 C-140.73202609 303.87112309 -138.86720142 305.30690204 -137.00463867 306.74560547 C-136.15232666 307.39932129 -135.30001465 308.05303711 -134.421875 308.7265625 C-133.66487305 309.31002441 -132.90787109 309.89348633 -132.12792969 310.49462891 C-130.1455303 311.89704683 -128.20099286 312.98430103 -126 314 C-125.3709375 313.35933594 -124.741875 312.71867188 -124.09375 312.05859375 C-119.50845486 307.42495966 -114.88263092 302.94779271 -109.9296875 298.7109375 C-107.15892418 296.25426881 -104.597071 293.60640023 -102 290.96875 C-99.43694772 288.44574541 -96.72654176 286.12437183 -94 283.78125 C-91.91662922 281.9257479 -89.95718793 279.98776899 -88 278 C-84.79970478 274.74970017 -81.45775424 271.75275755 -78 268.78125 C-75.91662922 266.9257479 -73.95718793 264.98776899 -72 263 C-68.8009886 259.75100405 -65.46075537 256.75493465 -62.00390625 253.78515625 C-59.26015447 251.34091734 -56.70478284 248.73164613 -54.15234375 246.08984375 C-52 244 -52 244 -50.28649807 242.93335533 C-47.10828173 240.78651109 -45.27690304 239.15322854 -44.36271858 235.34589005 C-44.13687767 231.94596875 -44.13469974 228.60856364 -44.20532227 225.20166016 C-44.20447852 223.89252844 -44.20363478 222.58339672 -44.20276546 221.23459435 C-44.20118968 217.70379839 -44.24165533 214.17467432 -44.29103851 210.64427185 C-44.33100444 207.32759273 -44.33278567 204.01098298 -44.33776855 200.6940918 C-44.37445026 191.0041744 -44.47217915 181.31456587 -44.5625 171.625 C-44.706875 149.96875 -44.85125 128.3125 -45 106 C-99.12 106 -153.24 106 -209 106 Z M-32 172 C-32 189.49 -32 206.98 -32 225 C-26.36146104 220.18443552 -26.36146104 220.18443552 -20.9140625 215.1953125 C-20.21514893 214.53273437 -19.51623535 213.87015625 -18.79614258 213.1875 C-18.07966553 212.506875 -17.36318848 211.82625 -16.625 211.125 C-15.12155349 209.71044871 -13.61765186 208.29638097 -12.11328125 206.8828125 C-9.75832853 204.66695068 -7.41757739 202.44015255 -5.10546875 200.1796875 C-4.34878906 199.46039063 -3.59210938 198.74109375 -2.8125 198 C-2.20019531 197.401875 -1.58789062 196.80375 -0.95703125 196.1875 C1.97937637 194.40572771 3.61917335 194.39896415 7 195 C9.46173933 196.70961488 11.41257826 198.80187438 13.4375 201 C14.01097168 201.59796387 14.58444336 202.19592773 15.17529297 202.81201172 C18.62750271 206.43678292 21.95763161 210.15899847 25.1953125 213.9765625 C27.97854155 217.09715264 30.97833188 219.99877754 33.95361328 222.93408203 C36.58056446 225.53937507 39.10008053 228.18470985 41.5 231 C46.02068851 236.3016347 51.03982961 241.113862 56 246 C56.66 246.66 57.32 247.32 58 248 C59.21623047 246.96552734 59.21623047 246.96552734 60.45703125 245.91015625 C60.9878833 245.46124023 61.51873535 245.01232422 62.06567383 244.54980469 C63.24329231 243.54714196 64.41360192 242.53583923 65.5769043 241.51660156 C68.41485103 239.05512108 71.04838254 236.97187194 74.3125 235.07421875 C77.8395559 232.92951158 79.7742284 231.51322771 82 228 C83.33297731 220.42728572 82.67551773 212.61776144 82 205 C76.79296907 202.99397709 71.58513646 201.2015703 66.22070312 199.65917969 C65.48755386 199.44565353 64.7544046 199.23212738 63.9990387 199.01213074 C61.59395083 198.31244338 59.18761887 197.61714264 56.78125 196.921875 C55.07889955 196.42754164 53.37663058 195.93292765 51.67443848 195.43804932 C47.19315284 194.13599633 42.71080517 192.83763801 38.22821045 191.5401001 C33.75178178 190.24370937 29.2763022 188.94405156 24.80078125 187.64453125 C19.60740116 186.13660589 14.41385325 184.62927704 9.21923828 183.12561035 C1.88226209 181.00133664 -5.45279809 178.87187883 -12.77734375 176.70507812 C-13.90700562 176.37171448 -15.03666748 176.03835083 -16.20056152 175.69488525 C-18.22315785 175.09691972 -20.24480729 174.49573701 -22.26525879 173.89056396 C-23.12840698 173.635672 -23.99155518 173.38078003 -24.88085938 173.11816406 C-25.61284546 172.89968811 -26.34483154 172.68121216 -27.09899902 172.45611572 C-29.16037516 171.88334363 -29.16037516 171.88334363 -32 172 Z " fill="#000000" transform="translate(279,0)"/>
<path d="M0 0 C1.17066513 -0.0038269 2.34133026 -0.00765381 3.54747009 -0.01159668 C6.01253117 -0.01430869 8.47762138 -0.00699764 10.94262695 0.00976562 C14.70654631 0.03120274 18.46856106 0.00992768 22.23242188 -0.015625 C24.63411878 -0.01298198 27.0358145 -0.00785753 29.4375 0 C30.55745865 -0.00809692 31.6774173 -0.01619385 32.83131409 -0.02453613 C39.33138319 0.05316519 43.37311148 0.64632118 48.65234375 4.53125 C51.45892617 7.48554729 52.80291672 9.60056804 53.65234375 13.53125 C54.45639648 13.31919922 55.26044922 13.10714844 56.08886719 12.88867188 C83.22342891 5.84375 83.22342891 5.84375 94.58984375 5.84375 C95.30043945 5.83730469 96.01103516 5.83085937 96.74316406 5.82421875 C110.89369912 6.29265026 124.16772201 12.57676174 136.90234375 18.15625 C139.51450998 19.28737659 142.12825528 20.41479588 144.74217224 21.54187012 C146.55968665 22.32565242 148.37670866 23.11057746 150.19325256 23.89660645 C156.94208589 26.81211134 163.71728209 29.6596678 170.5078125 32.4765625 C171.48023895 32.88045197 172.45266541 33.28434143 173.45455933 33.70046997 C177.26136375 35.28079494 181.06848247 36.86027537 184.87927246 38.43096924 C187.51264881 39.51695791 190.1432288 40.60949125 192.7734375 41.703125 C193.54060593 42.01710236 194.30777435 42.33107971 195.09819031 42.65457153 C204.47090178 46.56626205 212.93832426 50.78214157 218.65234375 59.53125 C219.3828125 62.328125 219.3828125 62.328125 219.83984375 65.28125 C219.99839844 66.26609375 220.15695312 67.2509375 220.3203125 68.265625 C220.42988281 69.01328125 220.53945313 69.7609375 220.65234375 70.53125 C224.14324772 70.53125 226.55023138 69.6743884 229.85986328 68.55029297 C230.80164854 68.23250145 230.80164854 68.23250145 231.76245975 67.90828991 C233.85485499 67.20100803 235.94497875 66.48724408 238.03515625 65.7734375 C239.51185776 65.27276235 240.9886925 64.77247996 242.46565247 64.27256775 C246.42056948 62.93266671 250.37355847 61.58716009 254.32621384 60.2406044 C258.40195982 58.85323747 262.47953178 57.47125831 266.55688477 56.08862305 C280.35127553 51.40888462 294.13968297 46.71164061 307.921875 41.99609375 C308.8681073 41.67243835 309.8143396 41.34878296 310.78924561 41.01531982 C314.95023581 39.59150757 319.1102523 38.16499507 323.26806641 36.73193359 C327.39015618 35.31357066 331.51760062 33.91229542 335.65234375 32.53125 C336.71927963 32.174366 336.71927963 32.174366 337.80776978 31.81027222 C339.95585062 31.09749871 342.10783637 30.39814775 344.26171875 29.703125 C345.50791992 29.29803711 346.75412109 28.89294922 348.03808594 28.47558594 C357.92650859 25.8919316 367.5908891 26.79458052 376.65234375 31.53125 C382.06794215 34.94631018 385.85111928 39.32821662 387.65234375 45.53125 C388.46824322 51.36871631 388.53306433 56.94059592 384.98999023 61.87573242 C379.62990181 68.50956334 372.48145049 71.96819801 364.99151611 75.70675659 C361.71874465 77.34083142 358.46215413 79.00670452 355.203125 80.66796875 C354.55112122 80.99924271 353.89911743 81.33051666 353.22735596 81.67182922 C347.68299204 84.49544824 342.21987863 87.4536075 336.77734375 90.46875 C327.31965319 95.69028532 317.7347733 100.64242402 308.12310791 105.57199097 C299.90665794 109.78840223 291.73724073 114.06582598 283.65234375 118.53125 C274.64885427 123.50145917 265.54389405 128.25904224 256.40234375 132.96875 C255.73976563 133.310271 255.0771875 133.65179199 254.39453125 134.00366211 C251.26789563 135.61408188 248.13922836 137.22037449 245.0065918 138.8190918 C242.90652856 139.89105798 240.80866432 140.9673555 238.71411133 142.05004883 C228.82377616 147.10994172 219.85160694 148.75995796 208.828125 148.72265625 C207.44071106 148.71847183 207.44071106 148.71847183 206.02526855 148.71420288 C197.14138353 148.62406189 188.45572871 147.7884465 179.65234375 146.65625 C177.91090981 146.44123501 176.16945374 146.22639912 174.42797852 146.01171875 C134.0744699 140.95126206 93.85489406 134.65892916 53.65234375 128.53125 C53.04648438 129.47355469 52.440625 130.41585937 51.81640625 131.38671875 C49.29245928 135.05418682 46.63961012 137.53761682 42.65234375 139.53125 C40.90267218 139.64227138 39.14885187 139.6904471 37.39575195 139.70825195 C35.74812614 139.72750481 35.74812614 139.72750481 34.06721497 139.74714661 C32.27824043 139.75822701 32.27824043 139.75822701 30.453125 139.76953125 C29.22957809 139.777603 28.00603119 139.78567474 26.7454071 139.79399109 C24.15035423 139.80784341 21.55528304 139.8185604 18.96020508 139.82641602 C14.99850684 139.84360395 11.03764821 139.88747893 7.07617188 139.93164062 C4.55599573 139.94176946 2.03581247 139.95028496 -0.484375 139.95703125 C-1.66690353 139.97453934 -2.84943207 139.99204742 -4.0677948 140.01008606 C-10.73552993 139.99257817 -14.9573471 139.57432885 -20.34765625 135.53125 C-24.14589793 131.43314714 -25.4646165 128.39315215 -25.5015564 122.85847473 C-25.51445709 121.41818909 -25.51445709 121.41818909 -25.52761841 119.94880676 C-25.53187836 118.89682602 -25.53613831 117.84484528 -25.54052734 116.76098633 C-25.54870483 115.65173798 -25.55688232 114.54248962 -25.56530762 113.39962769 C-25.59016325 109.72085105 -25.60667866 106.04211301 -25.62109375 102.36328125 C-25.62641743 101.10727301 -25.6317411 99.85126476 -25.6372261 98.55719566 C-25.65845617 93.27711855 -25.67758539 87.99704723 -25.6888485 82.71693897 C-25.70507081 75.16282312 -25.73820981 67.60922297 -25.79524934 60.05530149 C-25.83871226 54.09501092 -25.85460305 48.13483459 -25.86098099 42.17438316 C-25.86769573 39.64386005 -25.8829234 37.1133445 -25.9068718 34.5829258 C-25.93850849 31.03771516 -25.93856137 27.49380122 -25.93115234 23.94848633 C-25.94755768 22.90662674 -25.96396301 21.86476715 -25.98086548 20.79133606 C-25.92467954 14.21064326 -24.80841867 9.52797724 -20.34765625 4.53125 C-14.17474127 -0.22581299 -7.52981207 -0.05453658 0 0 Z M-13.34765625 16.53125 C-14.09176376 19.96636889 -14.00978185 23.34895727 -13.96289062 26.85180664 C-13.96843964 27.90095749 -13.97398865 28.95010834 -13.97970581 30.03105164 C-13.9915242 33.50163326 -13.96720482 36.9709158 -13.94140625 40.44140625 C-13.93969582 42.84988851 -13.93976013 45.25837264 -13.94152832 47.66685486 C-13.93987387 52.71501467 -13.92115064 57.76273105 -13.88964844 62.81079102 C-13.84994965 69.28993811 -13.84560493 75.76850464 -13.85311127 82.24775028 C-13.85617672 87.22079309 -13.84407587 92.19370472 -13.82698059 97.16671562 C-13.81993689 99.55618912 -13.81682771 101.94567748 -13.81767273 104.33516121 C-13.8158804 107.67041162 -13.79454687 111.00495867 -13.76757812 114.34008789 C-13.77050873 115.33289764 -13.77343933 116.3257074 -13.77645874 117.34860229 C-13.76510895 118.25567429 -13.75375916 119.16274628 -13.74206543 120.0973053 C-13.73833672 120.88577378 -13.734608 121.67424227 -13.7307663 122.48660374 C-13.24913907 125.05703309 -12.39439373 125.94922807 -10.34765625 127.53125 C-8.09372688 127.98479272 -8.09372688 127.98479272 -5.55664062 127.91943359 C-4.09997986 127.93361832 -4.09997986 127.93361832 -2.6138916 127.9480896 C-1.56697144 127.94201691 -0.52005127 127.93594421 0.55859375 127.9296875 C1.63484009 127.93255768 2.71108643 127.93542786 3.81994629 127.93838501 C6.09627814 127.94042725 8.37262747 127.93488629 10.64892578 127.92236328 C14.13874448 127.90631255 17.62740494 127.92220728 21.1171875 127.94140625 C23.32682548 127.93942385 25.53646274 127.93558024 27.74609375 127.9296875 C28.79301392 127.93576019 29.83993408 127.94183289 30.9185791 127.9480896 C31.88968628 127.93863312 32.86079346 127.92917664 33.86132812 127.91943359 C34.71609741 127.91704681 35.5708667 127.91466003 36.45153809 127.91220093 C39.20377126 127.43580004 39.93173829 126.698944 41.65234375 124.53125 C42.12222043 122.46269749 42.12222043 122.46269749 42.0847168 120.14199829 C42.10448074 119.24478561 42.12424469 118.34757294 42.14460754 117.423172 C42.15102768 116.44128403 42.15744781 115.45939606 42.1640625 114.44775391 C42.18228561 113.41171524 42.20050873 112.37567657 42.21928406 111.3082428 C42.27507758 107.87479155 42.30855267 104.44156882 42.33984375 101.0078125 C42.36938036 98.62510471 42.39949872 96.24240407 42.43017578 93.85971069 C42.49064937 88.86127625 42.53926509 83.86288582 42.58056641 78.86425781 C42.63514407 72.45549909 42.72628695 66.04784659 42.82728577 59.63967323 C42.89958727 54.71733717 42.94877984 49.79497011 42.99136353 44.87229538 C43.01529784 42.50949027 43.04730611 40.14675279 43.0874939 37.78416824 C43.140953 34.48032449 43.16241695 31.17775115 43.17578125 27.87353516 C43.19839523 26.89569565 43.22100922 25.91785614 43.24430847 24.91038513 C43.23022062 20.35909526 43.1369487 18.20392811 40.4140625 14.42430115 C37.56589999 12.47199615 36.33101875 11.90426784 32.94140625 11.90014648 C32.03696777 11.88761337 31.1325293 11.87508026 30.20068359 11.86216736 C28.75363037 11.88205467 28.75363037 11.88205467 27.27734375 11.90234375 C26.27525879 11.89993179 25.27317383 11.89751984 24.24072266 11.89503479 C22.12593623 11.89601256 20.011124 11.90938938 17.89648438 11.93432617 C14.66317623 11.96863506 11.43260176 11.95498063 8.19921875 11.93554688 C6.14191547 11.94244554 4.08461924 11.9521181 2.02734375 11.96484375 C1.0626416 11.95988388 0.09793945 11.95492401 -0.89599609 11.94981384 C-1.80043457 11.96565018 -2.70487305 11.98148651 -3.63671875 11.99780273 C-4.82322021 12.0071006 -4.82322021 12.0071006 -6.03369141 12.0165863 C-9.54254131 12.79701202 -10.9865472 13.78328024 -13.34765625 16.53125 Z M73.77832031 21.46704102 C71.49918859 21.97502536 69.21691769 22.46631627 66.93359375 22.95507812 C65.48286803 23.26989066 64.03233903 23.58561141 62.58203125 23.90234375 C61.89986542 24.05029892 61.21769958 24.19825409 60.51486206 24.35069275 C57.31012663 24.87554813 57.31012663 24.87554813 54.65234375 26.53125 C54.55716572 29.30063966 54.5268011 32.04502159 54.53881836 34.81469727 C54.53867233 35.68291107 54.53852631 36.55112488 54.53837585 37.44564819 C54.53907529 40.32967586 54.54686912 43.2136398 54.5546875 46.09765625 C54.55655157 48.09162867 54.55797552 50.08560155 54.55897522 52.07957458 C54.56280127 57.33870702 54.5726323 62.59781203 54.5836792 67.85693359 C54.59389145 73.21907175 54.59847244 78.58121431 54.60351562 83.94335938 C54.61425449 94.47266833 54.63133195 105.00195689 54.65234375 115.53125 C64.48663127 117.4145762 74.32449574 119.18559982 84.21875 120.73046875 C85.46877304 120.92676376 86.71879608 121.12305878 88.00669861 121.32530212 C92.07517653 121.96233131 96.14484121 122.59154427 100.21484375 123.21875 C100.91320343 123.32650505 101.61156311 123.4342601 102.33108521 123.54528046 C124.22599113 126.91987041 146.14591251 130.0622758 168.11793137 132.89291763 C170.13029866 133.1533965 172.14211766 133.41778044 174.15383911 133.68319702 C210.47022538 138.441645 230.89642692 132.96322282 262.76708984 115.36547852 C270.81942934 110.93591604 278.97504965 106.72357202 287.15234375 102.53125 C296.91601943 97.52426321 306.60871613 92.42371037 316.21337891 87.1159668 C323.56523002 83.07483344 331.00869026 79.22603598 338.4727478 75.39785767 C351.97263052 68.49645256 351.97263052 68.49645256 365.33984375 61.34375 C365.95005371 61.01802002 366.56026367 60.69229004 367.18896484 60.35668945 C370.87987865 58.29010291 373.3293719 56.07209059 375.65234375 52.53125 C375.89911381 49.42831707 375.89911381 49.42831707 374.65234375 46.53125 C370.32358552 42.20249177 365.22718943 40.02952029 359.12792969 39.453125 C344.31662853 39.92054279 328.63768409 47.88234551 314.79638672 52.70384598 C311.37879155 53.89279174 307.95887675 55.07502376 304.5390625 56.25756836 C299.08421273 58.14433116 293.63015687 60.03336484 288.17675781 61.92431641 C265.20636048 69.88757731 242.20963706 77.7613401 219.08984375 85.28125 C218.30617432 85.53681671 217.52250488 85.79238342 216.71508789 86.05569458 C214.50642625 86.77481352 212.29647485 87.4897954 210.0859375 88.203125 C208.83868896 88.6062793 207.59144043 89.00943359 206.30639648 89.42480469 C183.75541948 96.25322907 166.72636703 88.2048771 146.15234375 79.40625 C144.44944165 78.68306865 142.74631757 77.96040978 141.04296875 77.23828125 C133.14989223 73.88888996 133.14989223 73.88888996 129.64550781 72.37469482 C128.30991232 71.80951249 126.96508596 71.26569428 125.61230469 70.74298096 C123.92797581 70.07963152 122.2851685 69.31283786 120.65234375 68.53125 C119.46484375 65.59375 119.46484375 65.59375 119.65234375 62.53125 C121.58984375 60.15625 121.58984375 60.15625 123.65234375 58.53125 C130.39827771 60.42450952 136.83493135 62.69983989 143.28125 65.4375 C144.1557933 65.8034729 145.03033661 66.1694458 145.93138123 66.54650879 C148.69455183 67.70335338 151.45491142 68.86670322 154.21484375 70.03125 C156.97859958 71.19516572 159.74297614 72.35751792 162.50901794 73.51599121 C164.22009451 74.23281501 165.92987799 74.9527368 167.63807678 75.6763916 C178.50524487 80.23408624 187.95285975 83.96004931 199.56640625 79.640625 C203.20686665 77.70449999 205.6319826 75.10690803 207.65234375 71.53125 C208.39353973 67.82527011 208.14370258 66.33198291 206.17578125 63.125 C202.75585666 59.60978339 199.11826038 58.07683192 194.65234375 56.15625 C193.70375488 55.73690186 192.75516602 55.31755371 191.77783203 54.88549805 C178.8950736 49.24109449 165.8795877 43.89658783 152.8789978 38.53083801 C147.13302709 36.15500758 141.40591208 33.73684993 135.68359375 31.3046875 C133.24968022 30.27460261 130.81538722 29.24542081 128.38092041 28.21664429 C126.83083643 27.55942331 125.28208922 26.89903916 123.73480225 26.23526001 C106.02160277 18.6408087 92.65547258 17.25716272 73.77832031 21.46704102 Z " fill="#000000" transform="translate(47.34765625,363.46875)"/>
<path d="M0 0 C13.28833958 12.80826951 21.54262811 29.33052316 22.05517578 47.91479492 C22.2195667 66.74105298 17.2042641 83.84124709 3.90112305 97.57910156 C2.52269612 98.94268643 1.11335454 100.27480082 -0.296875 101.60546875 C-1.07675781 102.35441406 -1.85664063 103.10335937 -2.66015625 103.875 C-16.78594482 116.29144944 -34.54919065 119.61210592 -52.78271484 118.79638672 C-69.15139352 117.55339714 -83.89923643 110.31115161 -95.296875 98.60546875 C-95.91949219 98.01507813 -96.54210937 97.4246875 -97.18359375 96.81640625 C-110.18009325 83.55705619 -113.8038758 65.37944423 -113.71923828 47.54003906 C-113.2856907 29.37637901 -106.12644344 13.58787384 -93.359375 0.640625 C-67.16670848 -23.4925375 -26.57710757 -22.66647603 0 0 Z M-68.296875 -0.39453125 C-69.22757812 -0.00523437 -70.15828125 0.3840625 -71.1171875 0.78515625 C-86.46120718 8.17301758 -95.00470117 21.39253992 -100.484375 36.984375 C-103.67245823 51.19280361 -101.6482272 66.10734932 -94.609375 78.79296875 C-85.03570376 93.57337348 -72.85007627 102.07335539 -55.75390625 106.22265625 C-39.50490203 108.75429761 -23.6434244 104.09682282 -10.4375 94.53515625 C2.13322915 83.90717615 8.02748866 69.79791072 9.51171875 53.6640625 C10.50434661 38.24719663 4.71330307 24.21768243 -5.03515625 12.51953125 C-15.22953597 1.50200286 -29.15024627 -4.27353462 -44.03442383 -4.86499023 C-52.67892252 -4.97482793 -60.26531117 -3.78184862 -68.296875 -0.39453125 Z " fill="#000000" transform="translate(329.296875,282.39453125)"/>
<path d="M0 0 C2.25 1.1875 2.25 1.1875 3.25 2.1875 C3.29063832 3.85367115 3.292721 5.52138095 3.25 7.1875 C4.05824219 7.14109375 4.86648438 7.0946875 5.69921875 7.046875 C14.33361475 6.75524281 14.33361475 6.75524281 18.5625 8.75 C20.25 11.1875 20.25 11.1875 20.25 14.8125 C19.25 18.1875 19.25 18.1875 16.25 20.1875 C11.90339644 20.45814779 7.60919984 20.27382079 3.25 20.1875 C3.25 25.4675 3.25 30.7475 3.25 36.1875 C5.23 36.5175 7.21 36.8475 9.25 37.1875 C14.9299467 40.25467122 18.2032905 44.04737151 20.25 50.1875 C20.75464526 57.36899018 21.17791246 63.97886418 17.25 70.1875 C14.08505366 73.77771044 11.14567826 76.3566403 6.3125 77.0625 C5.301875 77.10375 4.29125 77.145 3.25 77.1875 C2.92 79.4975 2.59 81.8075 2.25 84.1875 C-1 84.9375 -1 84.9375 -4.75 85.1875 C-7.1875 83.5 -7.1875 83.5 -8.75 81.1875 C-8.75 79.8675 -8.75 78.5475 -8.75 77.1875 C-10.10544922 77.23970703 -10.10544922 77.23970703 -11.48828125 77.29296875 C-12.66777344 77.32003906 -13.84726562 77.34710938 -15.0625 77.375 C-16.23425781 77.40980469 -17.40601563 77.44460938 -18.61328125 77.48046875 C-21.75 77.1875 -21.75 77.1875 -23.64453125 75.86328125 C-25.37064064 73.24667019 -25.13086549 71.23442394 -24.75 68.1875 C-23.64453125 66.51171875 -23.64453125 66.51171875 -21.75 65.1875 C-17.38769798 64.78006208 -13.14034742 65.05709364 -8.75 65.1875 C-8.75 59.5775 -8.75 53.9675 -8.75 48.1875 C-11.06 47.8575 -13.37 47.5275 -15.75 47.1875 C-17.89453125 45.91796875 -17.89453125 45.91796875 -19.5625 44.375 C-20.12582031 43.87355469 -20.68914062 43.37210937 -21.26953125 42.85546875 C-25.25219604 38.36840314 -25.1156868 34.07737064 -25.125 28.3125 C-25.14949219 27.52230469 -25.17398437 26.73210937 -25.19921875 25.91796875 C-25.22623667 20.50537861 -24.30082895 17.49688541 -20.75 13.1875 C-16.96424391 9.40174391 -14.05155158 8.60330797 -8.75 8.1875 C-8.42 5.8775 -8.09 3.5675 -7.75 1.1875 C-4.69204879 -0.38516062 -3.36664721 -0.99469122 0 0 Z M-11.28515625 21.375 C-13.19607717 23.73944616 -13.18301791 25.17553681 -13.1875 28.1875 C-13.20683594 29.05375 -13.22617187 29.92 -13.24609375 30.8125 C-12.90311076 33.76060168 -12.90311076 33.76060168 -8.75 36.1875 C-8.75 30.9075 -8.75 25.6275 -8.75 20.1875 C-9.9416442 20.08552527 -9.9416442 20.08552527 -11.28515625 21.375 Z M3.25 49.1875 C3.25 54.4675 3.25 59.7475 3.25 65.1875 C7.49429019 62.73950795 7.49429019 62.73950795 7.640625 59.48828125 C7.59421875 58.50214844 7.5478125 57.51601563 7.5 56.5 C7.46390625 55.50613281 7.4278125 54.51226562 7.390625 53.48828125 C7.34421875 52.72902344 7.2978125 51.96976562 7.25 51.1875 C5.93 50.5275 4.61 49.8675 3.25 49.1875 Z " fill="#000000" transform="translate(285.75,290.8125)"/>
<path d="M0 0 C3.96 0 7.92 0 12 0 C12 32.67 12 65.34 12 99 C8.04 99 4.08 99 0 99 C0 66.33 0 33.66 0 0 Z " fill="#000000" transform="translate(392,60)"/>
<path d="M0 0 C3.96 0 7.92 0 12 0 C12 32.67 12 65.34 12 99 C8.04 99 4.08 99 0 99 C0 66.33 0 33.66 0 0 Z " fill="#000000" transform="translate(360,60)"/>
<path d="M0 0 C4.29 0 8.58 0 13 0 C13 29.37 13 58.74 13 89 C8.71 89 4.42 89 0 89 C0 59.63 0 30.26 0 0 Z " fill="#000000" transform="translate(325,60)"/>
<path d="M0 0 C3.96 0 7.92 0 12 0 C12 26.07 12 52.14 12 79 C8.04 79 4.08 79 0 79 C0 52.93 0 26.86 0 0 Z " fill="#000000" transform="translate(293,60)"/>
<path d="M0 0 C7.59 0 15.18 0 23 0 C23 4.29 23 8.58 23 13 C15.41 13 7.82 13 0 13 C0 8.71 0 4.42 0 0 Z " fill="#000000" transform="translate(189,130)"/>
<path d="M0 0 C7.59 0 15.18 0 23 0 C23 4.29 23 8.58 23 13 C15.41 13 7.82 13 0 13 C0 8.71 0 4.42 0 0 Z " fill="#000000" transform="translate(92,130)"/>
<path d="M0 0 C7.26 0 14.52 0 22 0 C22 4.29 22 8.58 22 13 C14.74 13 7.48 13 0 13 C0 8.71 0 4.42 0 0 Z " fill="#000000" transform="translate(141,130)"/>
<path d="M0 0 C7.59 0 15.18 0 23 0 C23 3.96 23 7.92 23 12 C15.41 12 7.82 12 0 12 C0 8.04 0 4.08 0 0 Z " fill="#000000" transform="translate(189,194)"/>
<path d="M0 0 C7.59 0 15.18 0 23 0 C23 3.96 23 7.92 23 12 C15.41 12 7.82 12 0 12 C0 8.04 0 4.08 0 0 Z " fill="#000000" transform="translate(92,194)"/>
<path d="M0 0 C7.59 0 15.18 0 23 0 C23 3.96 23 7.92 23 12 C15.41 12 7.82 12 0 12 C0 8.04 0 4.08 0 0 Z " fill="#000000" transform="translate(189,162)"/>
<path d="M0 0 C7.59 0 15.18 0 23 0 C23 3.96 23 7.92 23 12 C15.41 12 7.82 12 0 12 C0 8.04 0 4.08 0 0 Z " fill="#000000" transform="translate(92,162)"/>
<path d="M0 0 C7.26 0 14.52 0 22 0 C22 3.96 22 7.92 22 12 C14.74 12 7.48 12 0 12 C0 8.04 0 4.08 0 0 Z " fill="#000000" transform="translate(141,194)"/>
<path d="M0 0 C7.26 0 14.52 0 22 0 C22 3.96 22 7.92 22 12 C14.74 12 7.48 12 0 12 C0 8.04 0 4.08 0 0 Z " fill="#000000" transform="translate(141,162)"/>
</svg>
